<!-- soft-signals.svg developed by Bob Tianqi Wei -->
<svg width="1600" height="1200" viewBox="0 0 1600 1200" fill="none" xmlns="http://www.w3.org/2000/svg">
  <rect width="1600" height="1200" fill="#F4F0EA"/>
  <text x="120" y="188" fill="#181818" font-family="Helvetica, Arial, sans-serif" font-size="48">Soft Signals</text>
  <text x="120" y="244" fill="#7D766D" font-family="Helvetica, Arial, sans-serif" font-size="24">Product design / Motion direction</text>
  <path d="M140 780C260 660 370 630 520 630C720 630 760 810 960 810C1110 810 1230 690 1460 470" stroke="#C4BBB0" stroke-width="18" stroke-linecap="round"/>
  <path d="M140 650C260 530 370 500 520 500C720 500 760 680 960 680C1110 680 1230 560 1460 340" stroke="#DDD5CA" stroke-width="18" stroke-linecap="round"/>
  <path d="M140 910C260 790 370 760 520 760C720 760 760 940 960 940C1110 940 1230 820 1460 600" stroke="#E9E3DA" stroke-width="18" stroke-linecap="round"/>
</svg>
